<?xml version="1.0" encoding="utf-8"?>
<!-- Generator: Adobe Illustrator 23.0.5, SVG Export Plug-In . SVG Version: 6.00 Build 0)  -->
<svg version="1.1" id="Layer_1" xmlns="http://www.w3.org/2000/svg" xmlns:xlink="http://www.w3.org/1999/xlink" x="0px" y="0px"
	 viewBox="0 0 327.9 104.6" style="enable-background:new 0 0 327.9 104.6;" xml:space="preserve">
<style type="text/css">
	.st0{clip-path:url(#SVGID_2_);}
	.st1{clip-path:url(#SVGID_2_);fill:#CDB041;}
	.st2{fill:#CDB041;}
	.st3{font-family:'Impact';}
	.st4{font-size:48.9466px;}
	.st5{font-size:28.552px;}
	.st6{font-size:28.5518px;}
</style>
<g>
	<defs>
		<rect id="SVGID_1_" x="-23.1" y="-11" width="450" height="160"/>
	</defs>
	<clipPath id="SVGID_2_">
		<use xlink:href="#SVGID_1_"  style="overflow:visible;"/>
	</clipPath>
	<path class="st0" d="M116.2,74.8c0,0-17.7,12.2-3.4,24c1.4,2.5-20.9-7.2-22.3-9.2C92,84.1,107.9,77.1,116.2,74.8"/>
	<path class="st0" d="M74.8,62c0,0,26.9-18.6,56.2-10.4c7.7,2.4,12.3,11,12.3,11s13.9,6.9,5.9,16.1c-21.7-20.6-63,7-63,7
		S68.7,72.7,69.4,69c6.1-1.6,33-10.1,48.8-7.5c-0.6,7.2,14.6,2.3,4.7-1.3c-2.4-2.1-8.8-3.6-14.3-3.7C97.2,56.1,74.8,62,74.8,62"/>
	<path class="st1" d="M92,99.9C61.7,90.8,23.8,73.6,24.5,38C-6.2,69,45.1,95.1,92,99.9"/>
	<path class="st1" d="M80.6,99.9c-25.4-3-42.9-6.3-72-27.2C0.6,88.3,30.6,101.3,80.6,99.9"/>
	<path class="st1" d="M98.5,99.9C60.2,80.3,31.3,44.1,96.8,3.1C0.6,21,31.3,79.8,98.5,99.9"/>
</g>
<text transform="matrix(1.6774 0 0 1 143.2974 53.8633)" class="st2 st3 st4">F</text>
<text transform="matrix(1.6774 0 0 1 177.0586 53.8633)" class="st2 st3 st4">E</text>
<text transform="matrix(1.6774 0 0 1 212.4531 53.8633)" class="st2 st3 st4">N</text>
<text transform="matrix(1.6774 0 0 1 258.1953 53.8633)" class="st2 st3 st4">I</text>
<text transform="matrix(1.6774 0 0 1 282.6992 53.8633)" class="st2 st3 st4">X</text>
<text transform="matrix(2.0803 0 0 1 234.6797 83.459)" class="st2 st3 st5">SE</text>
<text transform="matrix(2.0803 0 0 1 291.9355 83.459)" class="st2 st3 st5">G</text>
<text transform="matrix(2.0696 0 0 1 230.6797 83.5605)" class="st3 st6">SE</text>
<text transform="matrix(2.0696 0 0 1 288.1035 83.5605)" class="st3 st6">G</text>
</svg>
