<?xml version="1.0" encoding="utf-8"?>
<!-- Generator: Adobe Illustrator 23.0.5, SVG Export Plug-In . SVG Version: 6.00 Build 0)  -->
<svg version="1.1" id="Layer_1" xmlns="http://www.w3.org/2000/svg" xmlns:xlink="http://www.w3.org/1999/xlink" x="0px" y="0px"
	 viewBox="0 0 80.9 104.6" style="enable-background:new 0 0 80.9 104.6;" xml:space="preserve">
<style type="text/css">
	.st0{fill:#CDB041;}
	.st1{font-family:'Impact';}
	.st2{font-size:15.0776px;}
	.st3{font-size:12.7598px;}
	.st4{font-size:12.7599px;}
	.st5{clip-path:url(#SVGID_2_);}
	.st6{clip-path:url(#SVGID_2_);fill:#CDB041;}
</style>
<text transform="matrix(1.2186 0 0 1 36.9459 43.3659)"><tspan x="0" y="0" class="st0 st1 st2">F</tspan><tspan x="6.2" y="0" class="st0 st1 st2">E</tspan><tspan x="12.7" y="0" class="st0 st1 st2">N</tspan><tspan x="21.1" y="0" class="st0 st1 st2">I</tspan><tspan x="25.6" y="0" class="st0 st1 st2">X</tspan></text>
<text transform="matrix(1.5499 0 0 1 48.8858 58.5148)"><tspan x="0" y="0" class="st0 st1 st3">SE</tspan><tspan x="12.3" y="0" class="st0 st1 st3">G</tspan></text>
<text transform="matrix(1.5377 0 0 1 47.0259 58.0293)"><tspan x="0" y="0" class="st1 st4">SE</tspan><tspan x="12.4" y="0" class="st1 st4">G</tspan></text>
<g>
	<defs>
		<rect id="SVGID_1_" x="0" y="7.6" width="110" height="100"/>
	</defs>
	<clipPath id="SVGID_2_">
		<use xlink:href="#SVGID_1_"  style="overflow:visible;"/>
	</clipPath>
	<path class="st5" d="M34,61.2c0,0-4.3,7.6-0.8,15c0.3,1.5-5.1-4.5-5.4-5.8C28.1,67,32,62.6,34,61.2"/>
	<path class="st5" d="M23.9,53.2c0,0,6.6-11.7,13.7-6.5c1.9,1.5,3,6.9,3,6.9s3.4,4.3,1.4,10.1C36.8,50.7,26.7,68,26.7,68
		s-4.3-8.1-4.1-10.4c1.5-1,8.1-6.3,11.9-4.7c-0.1,4.5,3.6,1.5,1.2-0.8c-0.6-1.3-2.1-2.2-3.5-2.3C29.4,49.5,23.9,53.2,23.9,53.2"/>
	<path class="st6" d="M28.1,76.9c-7.4-5.7-16.7-16.4-16.5-38.7C4.1,57.5,16.7,73.9,28.1,76.9"/>
	<path class="st6" d="M25.3,76.9c-6.2-1.9-10.5-4-17.6-17C5.8,69.7,13.1,77.8,25.3,76.9"/>
	<path class="st6" d="M29.7,76.9C20.4,64.6,13.3,42,29.3,16.4C5.8,27.6,13.3,64.4,29.7,76.9"/>
</g>
</svg>
