<?xml version="1.0" encoding="utf-8"?>
<!-- Generator: Adobe Illustrator 23.0.5, SVG Export Plug-In . SVG Version: 6.00 Build 0)  -->
<svg version="1.1" id="Layer_1" xmlns="http://www.w3.org/2000/svg" xmlns:xlink="http://www.w3.org/1999/xlink" x="0px" y="0px"
	 viewBox="0 0 327.9 104.6" style="enable-background:new 0 0 327.9 104.6;" xml:space="preserve">
<style type="text/css">
	.st0{clip-path:url(#SVGID_2_);}
	.st1{clip-path:url(#SVGID_4_);}
	.st2{clip-path:url(#SVGID_6_);fill:#CDB041;}
	.st3{clip-path:url(#SVGID_8_);fill:#CDB041;}
	.st4{clip-path:url(#SVGID_10_);fill:#CDB041;}
	.st5{fill:#CDB041;}
	.st6{font-family:'Impact';}
	.st7{font-size:48.9466px;}
	.st8{font-size:28.552px;}
	.st9{fill:#FFFFFF;}
	.st10{font-size:28.5518px;}
</style>
<g>
	<g>
		<defs>
			<rect id="SVGID_1_" x="-23" y="-10.5" width="450" height="160"/>
		</defs>
		<clipPath id="SVGID_2_">
			<use xlink:href="#SVGID_1_"  style="overflow:visible;"/>
		</clipPath>
		<path class="st0" d="M116.3,75.3c0,0-17.7,12.2-3.4,24c1.4,2.5-20.9-7.2-22.3-9.2C92.1,84.6,108,77.6,116.3,75.3"/>
	</g>
	<g>
		<defs>
			<rect id="SVGID_3_" x="-23" y="-10.5" width="450" height="160"/>
		</defs>
		<clipPath id="SVGID_4_">
			<use xlink:href="#SVGID_3_"  style="overflow:visible;"/>
		</clipPath>
		<path class="st1" d="M74.9,62.5c0,0,26.9-18.6,56.2-10.4c7.7,2.4,12.3,11,12.3,11s13.9,6.9,5.9,16.1c-21.7-20.6-63,7-63,7
			s-17.5-13-16.8-16.7c6.1-1.6,33-10.1,48.8-7.5c-0.6,7.2,14.6,2.3,4.7-1.3c-2.4-2.1-8.8-3.6-14.3-3.7
			C97.3,56.6,74.9,62.5,74.9,62.5"/>
	</g>
	<g>
		<defs>
			<rect id="SVGID_5_" x="-23" y="-10.5" width="450" height="160"/>
		</defs>
		<clipPath id="SVGID_6_">
			<use xlink:href="#SVGID_5_"  style="overflow:visible;"/>
		</clipPath>
		<path class="st2" d="M92.1,100.4c-30.3-9.1-68.2-26.3-67.5-61.9C-6.1,69.5,45.2,95.6,92.1,100.4"/>
	</g>
	<g>
		<defs>
			<rect id="SVGID_7_" x="-23" y="-10.5" width="450" height="160"/>
		</defs>
		<clipPath id="SVGID_8_">
			<use xlink:href="#SVGID_7_"  style="overflow:visible;"/>
		</clipPath>
		<path class="st3" d="M80.7,100.4c-25.4-3-42.9-6.3-72-27.2C0.7,88.8,30.7,101.8,80.7,100.4"/>
	</g>
	<g>
		<defs>
			<rect id="SVGID_9_" x="-23" y="-10.5" width="450" height="160"/>
		</defs>
		<clipPath id="SVGID_10_">
			<use xlink:href="#SVGID_9_"  style="overflow:visible;"/>
		</clipPath>
		<path class="st4" d="M98.6,100.4C60.3,80.8,31.4,44.6,96.9,3.6C0.7,21.5,31.4,80.3,98.6,100.4"/>
	</g>
</g>
<text transform="matrix(1.6774 0 0 1 143.3979 54.3633)" class="st5 st6 st7">F</text>
<text transform="matrix(1.6774 0 0 1 177.1586 54.3633)" class="st5 st6 st7">E</text>
<text transform="matrix(1.6774 0 0 1 212.5531 54.3633)" class="st5 st6 st7">N</text>
<text transform="matrix(1.6774 0 0 1 258.2953 54.3633)" class="st5 st6 st7">I</text>
<text transform="matrix(1.6774 0 0 1 282.7992 54.3633)" class="st5 st6 st7">X</text>
<text transform="matrix(2.0803 0 0 1 234.7797 83.959)" class="st5 st6 st8">SE</text>
<text transform="matrix(2.0803 0 0 1 292.0346 83.959)" class="st5 st6 st8">G</text>
<text transform="matrix(2.0696 0 0 1 230.7797 84.0605)" class="st9 st6 st10">SE</text>
<text transform="matrix(2.0696 0 0 1 288.203 84.0605)" class="st9 st6 st10">G</text>
</svg>
